<?xml version="1.0" encoding="utf-8"?>
<!-- Generator: Adobe Illustrator 22.0.1, SVG Export Plug-In . SVG Version: 6.00 Build 0)  -->
<svg version="1.1" id="Layer_1" xmlns="http://www.w3.org/2000/svg" xmlns:xlink="http://www.w3.org/1999/xlink" x="0px" y="0px"
	 viewBox="0 0 448 512" style="enable-background:new 0 0 448 512;" xml:space="preserve">
<style type="text/css">
	.st0{fill:#DD3333;}
</style>
<path class="st0" d="M224.3,273l-136,136c-9.4,9.4-24.6,9.4-33.9,0l-22.6-22.6c-9.4-9.4-9.4-24.6,0-33.9l96.4-96.4l-96.4-96.4
	c-9.4-9.4-9.4-24.6,0-33.9L54.3,103c9.4-9.4,24.6-9.4,33.9,0l136,136C233.7,248.4,233.7,263.6,224.3,273z M416.3,239l-136-136
	c-9.4-9.4-24.6-9.4-33.9,0l-22.6,22.6c-9.4,9.4-9.4,24.6,0,33.9l96.4,96.4l-96.4,96.4c-9.4,9.4-9.4,24.6,0,33.9l22.6,22.6
	c9.4,9.4,24.6,9.4,33.9,0l136-136C425.7,263.6,425.7,248.4,416.3,239L416.3,239z"/>
</svg>
